<svg xmlns="http://www.w3.org/2000/svg" width="54" height="50" viewBox="0 0 54 50" fill="none">
  <path d="M14.521 0.27523C13.2825 2.20183 11.5394 5.43578 11.677 5.57339C11.7687 5.66514 18.1449 5.77982 25.8284 5.80275C38.5806 5.84862 39.7962 5.87156 39.8651 6.2156C39.9109 6.44495 39.4981 7.29358 38.9935 8.1422C38.466 9.01376 37.9384 9.93119 37.8238 10.1835C37.6861 10.4587 37.4568 10.9174 37.2733 11.2156C37.1128 11.5367 37.021 11.8807 37.0669 11.9725C37.2504 12.2706 50.232 12.1789 50.232 11.8807C50.232 11.7431 49.9339 11.1239 49.5439 10.5046C49.154 9.90826 48.8559 9.31193 48.8559 9.19725C48.8559 9.1055 48.5577 8.57798 48.1678 8.07339C47.8008 7.54587 47.4797 7.04128 47.4797 6.97248C47.4797 6.88073 47.0439 6.07798 46.4935 5.18349C45.943 4.28899 45.4384 3.3945 45.3467 3.21101C45.255 3.02752 44.9797 2.54587 44.7274 2.1789C44.4751 1.78899 44.154 1.23853 44.0394 0.917431C43.9017 0.619266 43.6495 0.275229 43.5118 0.183486C43.3513 0.0917429 36.8146 0 28.9706 0C17.8008 0 14.6586 0.0688075 14.521 0.27523ZM7.43386 12.6835C7.25037 12.7982 6.99808 13.0963 6.86046 13.3716C6.74578 13.6468 6.5623 14.0367 6.42468 14.2202C5.78248 15.2064 4.1311 18.0734 4.1311 18.211C4.1311 18.3028 3.94762 18.6468 3.69532 18.9908C3.46597 19.3349 2.68615 20.6422 1.9522 21.9037C1.21826 23.1651 0.530186 24.2202 0.415507 24.2661C0.0944061 24.4037 0.209085 25.0917 0.736608 25.9174C1.69991 27.4312 1.81459 27.6376 2.04395 28.1422C2.45679 29.0596 3.44303 30.5046 3.64945 30.5046C3.76413 30.5046 4.10817 30 4.42927 29.4037C5.55312 27.2706 8.25954 22.5688 8.97055 21.5138C9.22285 21.1697 9.40633 20.8257 9.40633 20.7569C9.40633 20.6881 10.1861 19.3349 11.1265 17.7523C12.0669 16.1697 12.8467 14.8165 12.8467 14.7248C12.8467 14.656 13.1219 14.1972 13.443 13.7156C13.7871 13.2339 13.9935 12.7523 13.9017 12.6605C13.6495 12.4312 7.8467 12.4541 7.43386 12.6835ZM22.755 12.6147C21.7228 12.7294 21.7228 12.7294 20.6219 14.9083C20.3467 15.4817 19.7733 16.445 19.3834 17.0872C18.9706 17.7064 18.3054 18.8532 17.8926 19.6101C17.4797 20.367 17.021 21.1468 16.8834 21.3303C16.7458 21.5138 16.4247 22.0413 16.1724 22.4771C15.3696 23.922 14.7045 25.0917 14.2228 25.9174C13.3972 27.3165 12.8008 28.3486 10.1403 32.9817L7.5256 37.5L7.93844 38.3028C8.1678 38.7385 8.78707 39.8165 9.31459 40.711C9.81918 41.5826 10.3238 42.5459 10.4155 42.8211C10.5073 43.1193 10.6678 43.3486 10.7595 43.3486C10.8513 43.3486 11.1495 43.7844 11.4476 44.3119C11.7228 44.8624 12.1586 45.5963 12.4109 45.9862C12.6403 46.3532 12.9843 46.9725 13.1678 47.3624C13.3513 47.7294 13.81 48.4862 14.1999 49.0367L14.9109 50H43.3742L43.7641 49.3119C43.9706 48.945 44.2229 48.6239 44.3375 48.6239C44.4293 48.6239 44.4981 48.5092 44.4981 48.3716C44.4981 48.2339 44.8421 47.5229 45.2779 46.8119C45.6907 46.1009 46.3329 45 46.677 44.3807C47.021 43.7385 48.0073 42.0413 48.8559 40.5963C54.0852 31.6743 53.9935 31.8578 53.6495 31.6284C53.466 31.5138 53.0302 31.4679 52.6632 31.5367C52.2962 31.6055 50.943 31.6514 49.6586 31.6514H47.2962L45.8742 34.1055C45.0944 35.4817 43.5806 38.0505 42.5256 39.8394C41.4706 41.6284 40.599 43.1881 40.599 43.3257C40.599 44.0138 39.5439 44.0826 28.8329 44.0596C22.8926 44.0367 18.0302 44.0138 18.0073 43.9679C17.4109 43.211 14.4522 37.867 14.4522 37.5917C14.4522 37.3624 14.9109 36.3991 15.4843 35.4817C16.0577 34.5413 16.5164 33.6927 16.5164 33.6239C16.5164 33.5321 16.7687 33.1193 17.0898 32.7064C17.4109 32.2936 17.6632 31.8807 17.6632 31.789C17.6632 31.6972 18.1907 30.7569 18.81 29.6789C19.4522 28.6009 19.9568 27.7064 19.9568 27.6606C19.9568 27.5688 22.5715 23.0963 23.5118 21.6055C23.8559 21.078 24.3834 20.1606 24.6816 19.5642C25.0027 18.9679 25.7825 17.6376 26.4017 16.5826C27.021 15.5275 27.5256 14.6101 27.5256 14.5183C27.5256 14.4495 27.8008 14.0367 28.1219 13.6009C28.443 13.1651 28.6495 12.7523 28.5806 12.6605C28.3972 12.4771 24.154 12.4541 22.755 12.6147Z" fill="black"/>
</svg>